<svg height="512pt" viewBox="0 0 512 512" width="512pt" xmlns="http://www.w3.org/2000/svg"><path d="m0 120h512v392h-512zm0 0" fill="#edf3f6"/><path d="m256 120h256v392h-256zm0 0" fill="#ddebf0"/><path d="m256 0c-57.898438 0-105 47.101562-105 105 0 27.511719 10.855469 53.917969 30 73.476562v63.523438l75 31 75-31v-63.523438c19.144531-19.558593 30-45.964843 30-73.476562 0-57.898438-47.101562-105-105-105zm0 0" fill="#ffdc55"/><path d="m256 0v273l75-31v-63.523438c19.144531-19.558593 30-45.964843 30-73.476562 0-57.898438-47.101562-105-105-105zm0 0" fill="#ffcd00"/><path d="m274.5625 90.292969-18.21875 21.464843-18.90625-22.277343-22.875 19.414062 26.4375 31.140625v115.964844h30v-115.152344l26.4375-31.140625zm0 0" fill="#fbb040"/><path d="m274.5625 90.292969-18.21875 21.464843-.34375 144.242188h15v-115.152344l26.4375-31.140625zm0 0" fill="#f7941d"/><path d="m362 241h90v30h-90zm0 0" fill="#a7d2d7"/><path d="m362 301h90v30h-90zm0 0" fill="#a7d2d7"/><g fill="#c5e1e6"><path d="m60 241h90v30h-90zm0 0"/><path d="m60 301h90v30h-90zm0 0"/><path d="m271 362v-50h-30v50h-121v75h30v-45h91v45h30v-45h91v45h30v-75zm0 0"/></g><path d="m271 362v-50h-15v125h15v-45h91v45h30v-75zm0 0" fill="#a7d2d7"/><path d="m181 241h150v90h-150zm0 0" fill="#0042a2"/><path d="m256 241h75v90h-75zm0 0" fill="#002859"/><path d="m256 512c-24.8125 0-45-20.1875-45-45s20.1875-45 45-45 45 20.1875 45 45-20.1875 45-45 45zm0 0" fill="#ff6379"/><path d="m256 512v-90c24.8125 0 45 20.1875 45 45s-20.1875 45-45 45zm0 0" fill="#f30051"/><path d="m256 452c-8.269531 0-15 6.730469-15 15s6.730469 15 15 15 15-6.730469 15-15-6.730469-15-15-15zm0 0" fill="#edf3f6"/><path d="m135 512c-24.8125 0-45-20.1875-45-45s20.1875-45 45-45 45 20.1875 45 45-20.1875 45-45 45zm0-60c-8.269531 0-15 6.730469-15 15s6.730469 15 15 15 15-6.730469 15-15-6.730469-15-15-15zm0 0" fill="#ff6379"/><path d="m377 512c-24.8125 0-45-20.1875-45-45s20.1875-45 45-45 45 20.1875 45 45-20.1875 45-45 45zm0-60c-8.269531 0-15 6.730469-15 15s6.730469 15 15 15 15-6.730469 15-15-6.730469-15-15-15zm0 0" fill="#f30051"/></svg>